<?xml version="1.0" encoding="utf-8"?>
<!-- Generator: Adobe Illustrator 27.7.0, SVG Export Plug-In . SVG Version: 6.00 Build 0)  -->
<svg version="1.1" id="Calque_2_00000101088550066026512240000014918047910999400604_"
	 xmlns="http://www.w3.org/2000/svg" xmlns:xlink="http://www.w3.org/1999/xlink" x="0px" y="0px" viewBox="0 0 182 153.1"
	 style="enable-background:new 0 0 182 153.1;" xml:space="preserve">
<style type="text/css">
	.st0{fill:url(#SVGID_1_);}
	.st1{fill:#3C3C3B;}
</style>
<g id="Calque_1-2">
	<g>
		<g>
			<g>
				
					<linearGradient id="SVGID_1_" gradientUnits="userSpaceOnUse" x1="20.8728" y1="128.7323" x2="173.5228" y2="218.0523" gradientTransform="matrix(1 0 0 1 0 -84)">
					<stop  offset="0" style="stop-color:#E94E1B"/>
					<stop  offset="1" style="stop-color:#DD0B1C"/>
				</linearGradient>
				<path class="st0" d="M114.2,127.2H36.4c-6.5,0-11.8-5.3-11.8-11.8V37.7c0-6.5,5.3-11.8,11.8-11.8h77.8c6.5,0,11.8,5.3,11.8,11.8
					v7.5h-4.7v-7.5c0-3.9-3.2-7.1-7.1-7.1H36.4c-3.9,0-7.1,3.2-7.1,7.1v77.8c0,3.9,3.2,7.1,7.1,7.1h77.8c3.9,0,7.1-3.2,7.1-7.1V97.2
					h4.7v18.2C126,121.9,120.7,127.2,114.2,127.2L114.2,127.2z"/>
				<g>
					<rect x="121.2" y="61.9" class="st1" width="4.7" height="27"/>
					<rect x="121.2" y="52.3" class="st1" width="4.7" height="4.1"/>
					<polygon class="st1" points="133.7,52.3 133.7,56 145.8,56 145.8,88.9 150.4,88.9 150.4,56 162.7,56 162.7,52.3 					"/>
					<path class="st1" d="M70.7,83.1c-1,1-2.2,1.8-3.5,2.5c-1.4,0.7-3.1,1.1-5,1.1c-2.8,0-4.8-0.6-6-1.9s-1.8-3.2-1.8-5.7V60.4h-4.6
						v18.7c0,3.7,1,6.7,2.9,8.8c2,2.2,4.9,3.3,8.6,3.3c2.8,0,5.1-0.4,6.9-1.2c0.9-0.4,1.8-0.9,2.7-1.5l0.2,2.1h4.2V60.4h-4.6V83.1
						L70.7,83.1z"/>
					<path class="st1" d="M98,59.8c-2.3,0-4.4,0.3-6.2,1c-0.9,0.3-1.8,0.8-2.6,1.3l-0.1-1.7h-4.2V103h4.6V89.3
						c0.8,0.4,1.6,0.8,2.3,1c1.6,0.6,3.6,0.8,5.8,0.8c4.1,0,7.5-1.3,10.1-3.9c2.6-2.6,3.8-6.6,3.8-11.9s-1.2-9.3-3.6-11.8
						C105.6,61.1,102.2,59.8,98,59.8L98,59.8z M107.1,75.3c0,4-0.8,6.9-2.4,8.7c-1.6,1.8-4,2.7-7.3,2.7c-1.9,0-3.5-0.3-4.7-0.8
						c-1.1-0.5-2.1-1.1-3.1-1.8V67.5c2.2-2.2,4.9-3.2,8.2-3.2s5.8,0.9,7.2,2.6C106.4,68.6,107.1,71.5,107.1,75.3L107.1,75.3z"/>
				</g>
			</g>
		</g>
	</g>
</g>
</svg>
